<?xml version="1.0" encoding="UTF-8"?><svg id="Layer_1" xmlns="http://www.w3.org/2000/svg" width="36.71" height="30.95" viewBox="0 0 36.71 30.95"><defs><style>.cls-1{fill:#2a1500;}.cls-2{fill:#e6e6e6;}</style></defs><path d="M20.29,18.38c-4.93,0-8.94-4.01-8.94-8.94S15.36.5,20.29.5s8.94,4.01,8.94,8.94-4.01,8.94-8.94,8.94Z"/><path class="cls-1" d="M20.29,1c4.66,0,8.44,3.78,8.44,8.44s-3.78,8.44-8.44,8.44-8.44-3.78-8.44-8.44S15.62,1,20.29,1M20.29,0c-5.2,0-9.44,4.23-9.44,9.44s4.23,9.44,9.44,9.44,9.44-4.23,9.44-9.44S25.49,0,20.29,0h0Z"/><path class="cls-2" d="M16.53,8.03c-1.06,0-1.93-.44-2.37-1.2-.39-.68-.4-1.51-.01-2.34.36-.78,1.01-1.47,1.85-1.96.73-.42,1.52-.64,2.28-.64,1.06,0,1.93.44,2.37,1.2.39.68.4,1.51.01,2.34-.36.78-1.01,1.47-1.85,1.96-.73.42-1.52.64-2.28.64Z"/><path d="M18.29,2.39c.84,0,1.57.32,1.93.95.64,1.1-.11,2.72-1.66,3.62-.67.39-1.38.58-2.03.58-.84,0-1.57-.32-1.93-.95-.64-1.1.11-2.72,1.66-3.62.67-.39,1.38-.58,2.03-.58M18.29,1.39h0c-.85,0-1.72.25-2.53.71-2.06,1.19-2.95,3.38-2.02,4.98.53.92,1.55,1.45,2.8,1.45.85,0,1.72-.25,2.53-.71,2.06-1.19,2.95-3.38,2.02-4.98-.53-.92-1.55-1.45-2.8-1.45h0Z"/><path d="M9.44,30.25c-4.93,0-8.94-4.01-8.94-8.94s4.01-8.94,8.94-8.94,8.94,4.01,8.94,8.94-4.01,8.94-8.94,8.94Z"/><path class="cls-1" d="M9.44,12.87c4.66,0,8.44,3.78,8.44,8.44s-3.78,8.44-8.44,8.44S1,25.97,1,21.31s3.78-8.44,8.44-8.44M9.44,11.87C4.23,11.87,0,16.1,0,21.31s4.23,9.44,9.44,9.44,9.44-4.23,9.44-9.44-4.23-9.44-9.44-9.44h0Z"/><path class="cls-2" d="M4.84,20.92c-.89,0-1.63-.34-2.08-.95-.92-1.25-.31-3.25,1.35-4.48.8-.59,1.72-.92,2.6-.92s1.63.34,2.08.95c.46.63.56,1.46.27,2.33-.27.81-.84,1.58-1.62,2.15-.8.59-1.72.92-2.59.92Z"/><path d="M6.71,15.08c.7,0,1.31.25,1.68.75.75,1.02.2,2.72-1.25,3.78-.74.54-1.57.82-2.3.82s-1.31-.25-1.68-.75c-.75-1.02-.2-2.72,1.25-3.78.74-.54,1.57-.82,2.3-.82M6.71,14.08h0c-.98,0-2.01.36-2.89,1.01-1.92,1.41-2.56,3.69-1.46,5.18.55.75,1.43,1.16,2.48,1.16.98,0,2.01-.36,2.89-1.01,1.92-1.41,2.56-3.69,1.46-5.18-.55-.75-1.43-1.16-2.48-1.16h0Z"/><path d="M27.27,30.45c-4.93,0-8.94-4.01-8.94-8.94s4.01-8.94,8.94-8.94,8.94,4.01,8.94,8.94-4.01,8.94-8.94,8.94Z"/><path class="cls-1" d="M27.27,13.07c4.66,0,8.44,3.78,8.44,8.44s-3.78,8.44-8.44,8.44-8.44-3.78-8.44-8.44,3.78-8.44,8.44-8.44M27.27,12.07c-5.2,0-9.44,4.23-9.44,9.44s4.23,9.44,9.44,9.44,9.44-4.23,9.44-9.44-4.23-9.44-9.44-9.44h0Z"/><path class="cls-2" d="M22.68,21.12c-.89,0-1.63-.34-2.08-.95-.92-1.25-.31-3.25,1.35-4.48.8-.59,1.72-.92,2.6-.92s1.63.34,2.08.95c.92,1.24.31,3.25-1.35,4.48-.8.59-1.72.92-2.6.92Z"/><path d="M24.54,15.28c.7,0,1.31.25,1.68.75.75,1.02.2,2.72-1.25,3.78-.74.54-1.57.82-2.3.82s-1.31-.25-1.68-.75c-.75-1.02-.2-2.72,1.25-3.78.74-.54,1.57-.82,2.3-.82M24.54,14.28c-.98,0-2.01.36-2.89,1.01-1.92,1.41-2.56,3.69-1.46,5.18.55.75,1.43,1.16,2.48,1.16.98,0,2.01-.36,2.89-1.01,1.92-1.41,2.56-3.69,1.46-5.18-.55-.75-1.43-1.16-2.48-1.16h0Z"/></svg>