<?xml version="1.0" encoding="UTF-8"?><svg id="Layer_1" xmlns="http://www.w3.org/2000/svg" width="56.11" height="29.23" xmlns:xlink="http://www.w3.org/1999/xlink" viewBox="0 0 56.11 29.23"><defs><style>.cls-1{fill:url(#linear-gradient);}.cls-1,.cls-2{stroke:#000;stroke-miterlimit:10;}.cls-2{fill:#e8c51e;}</style><linearGradient id="linear-gradient" x1="28.39" y1="27.35" x2="28.39" y2="2.72" gradientUnits="userSpaceOnUse"><stop offset="0" stop-color="#fff"/><stop offset=".11" stop-color="#f8fafe"/><stop offset=".26" stop-color="#e7effc"/><stop offset=".43" stop-color="#cbdcfa"/><stop offset=".62" stop-color="#a3c1f6"/><stop offset=".82" stop-color="#719ff1"/><stop offset="1" stop-color="#3d7ded"/></linearGradient></defs><polygon class="cls-2" points="46.96 4.92 41.11 .59 35.16 3.91 46.96 4.92"/><path class="cls-1" d="M55.6,13.9c-.5.69-6.57,3.94-6.87,4.38-.32.48,6.18-1.42,6.35.23.3,3.17-8.95,8.6-18.27,8.21-6.84-.3-20.36-3.43-25.07-7.86L1.7,27.56l4.52-11.93L1.16,3.04l10.99,8.67c4.74-4.52,16.44-7.97,24.66-7.97,6.6,0,15.01-.11,18.25,8.04.31.82.59,2.04.54,2.11Z"/><polygon class="cls-2" points="30.47 4.27 23.57 1.98 18.94 6.99 30.47 4.27"/><polygon class="cls-2" points="17.62 22.51 22.52 27.89 29.01 25.79 17.62 22.51"/><ellipse class="cls-2" cx="31.97" cy="15.73" rx="9.48" ry="1.42"/></svg>