<?xml version="1.0" encoding="UTF-8"?><svg id="Layer_1" xmlns="http://www.w3.org/2000/svg" width="44.62" height="35.74" viewBox="0 0 44.62 35.74"><defs><style>.cls-1{fill:#7fc8d0;}.cls-2{fill:#0ec8d0;}.cls-3{fill:#65c8d0;}</style></defs><polygon class="cls-2" points="44.62 25.28 32.66 31.39 32.66 13.94 44.62 7.83 44.62 25.28"/><polygon class="cls-3" points="19.79 24.07 32.66 31.36 32.66 13.91 19.79 6.61 19.79 24.07"/><polygon class="cls-1" points="32.66 13.94 19.79 6.61 31.92 2.16 44.62 7.83 32.66 13.94"/><polygon class="cls-2" points="20.7 18.84 13.06 25.99 13.06 8.54 20.7 1.38 20.7 18.84"/><polygon class="cls-3" points="0 22.99 13.06 25.96 13.06 8.51 0 5.54 0 22.99"/><polygon class="cls-1" points="13.06 8.54 0 5.54 9.76 0 20.7 1.38 13.06 8.54"/><polygon class="cls-2" points="27.3 29.45 16.14 35.74 16.14 18.29 27.3 12 27.3 29.45"/><polygon class="cls-3" points="3.27 28.41 16.15 35.71 16.15 18.26 3.27 10.96 3.27 28.41"/><polygon class="cls-1" points="16.14 18.29 3.27 10.96 15.4 6.51 27.3 12 16.14 18.29"/><path class="cls-1" d="M18.86,19.51c0,2.27-.51,4.1-1.14,4.1s-1.14-1.84-1.14-4.1-.43-4.07,1.14-4.1,1.14,1.84,1.14,4.1Z"/><path class="cls-1" d="M22.35,14.43c0,2.27.43,4.07-1.13,4.11s-1.14-1.84-1.14-4.1"/></svg>