<?xml version="1.0" encoding="UTF-8"?><svg id="Layer_1" xmlns="http://www.w3.org/2000/svg" width="64.18" height="47.88" viewBox="0 0 64.18 47.88"><defs><style>.cls-1{fill:none;}.cls-1,.cls-2,.cls-3,.cls-4{stroke:#000;stroke-miterlimit:10;}.cls-2{fill:#ba9b8b;}.cls-3{fill:#662d91;}.cls-4{fill:#93278f;}</style></defs><path class="cls-2" d="M.51,34.17c.34,2.46,12.94,13.24,26.47,11.42,13.53-1.81,23.63-9.86,22.54-17.98s-12.94-13.24-26.47-11.42C9.51,18,.24,32.28.51,34.17Z"/><path class="cls-2" d="M60.73,11.64c4.59,13.15,3.71,29.34-1.82,30.36-2.54.47-6.75-1.56-11.35-4.26-2-1.18-11.11-9.76-13.88-16.18-6.95-16.11,2.4-14.93,9.26-17.44,7.47-2.74,12.35-8.06,17.79,7.52Z"/><path class="cls-3" d="M55.94,3.14c1.16,3.01-2.65,7.34-9.54,9.86s-13.43,2.14-14.59-.88,3.48-7.5,10.38-10.03,12.59-1.97,13.75,1.04Z"/><path class="cls-4" d="M50.68,5.1c.69,1.8-1.58,4.38-5.7,5.89s-8.01,1.28-8.71-.52,2.08-4.48,6.19-5.99c4.11-1.51,7.51-1.17,8.21.62Z"/><path class="cls-1" d="M40.69,25.89s4.97.89,6.51-1.88"/><path class="cls-2" d="M50.1,32.69c0,8.11-7.79,14.69-17.41,14.69s-20.57-4.15-20.57-12.26,10.96-17.11,20.57-17.11,17.41,6.58,17.41,14.69Z"/><ellipse class="cls-3" cx="35.26" cy="32.42" rx="14.64" ry="14.32"/><ellipse class="cls-4" cx="35.96" cy="32.43" rx="7.85" ry="7.67"/></svg>