<?xml version="1.0" encoding="UTF-8"?><svg xmlns="http://www.w3.org/2000/svg" width="360" height="440" viewBox="0 0 360 440"><defs><style>.cls-1{fill:#ee9800;}.cls-2{fill:#2a1500;}.cls-3,.cls-4{stroke:#000;stroke-miterlimit:10;}.cls-5{fill:#66e8ff;}.cls-4{fill:#0d0021;}.cls-6{fill:#884800;}.cls-7{fill:#ff0;}.cls-8{fill:#e6e6e6;}</style></defs><g id="Layer_4"><path class="cls-5" d="M70.93,130.56l15.63,84.43,181.77-2.4,5.94-98.91c-29.3,7.12-64.21,13.47-103.78,16.59-37.26,2.93-70.82,2.38-99.56.29Z"/></g><g id="Drink"><path class="cls-1" d="M83.23,198.06l37.42,203.87c10.44,5.61,35.76,17.41,69.68,15.48,31.85-1.81,54.58-14.78,64.52-21.29,5.16-70.75,10.32-141.51,15.48-212.26-17.17-8.16-69.94-30.45-131.39-13.08-24.13,6.82-42.74,17.81-55.71,27.28Z"/></g><g id="Bobba"><path d="M151.7,393.65c-9.69,0-17.58-7.89-17.58-17.58s7.89-17.58,17.58-17.58,17.58,7.89,17.58,17.58-7.89,17.58-17.58,17.58Z"/><path class="cls-2" d="M151.7,358.99c9.43,0,17.08,7.65,17.08,17.08s-7.65,17.08-17.08,17.08-17.08-7.65-17.08-17.08,7.65-17.08,17.08-17.08M151.7,357.99c-9.97,0-18.08,8.11-18.08,18.08s8.11,18.08,18.08,18.08,18.08-8.11,18.08-18.08-8.11-18.08-18.08-18.08h0Z"/><path class="cls-8" d="M143.84,374.78c-1.64,0-2.99-.61-3.8-1.72-.84-1.14-1.01-2.64-.48-4.25.51-1.54,1.61-3,3.11-4.1,1.53-1.13,3.29-1.75,4.95-1.75s2.98.61,3.8,1.72c.84,1.14,1.01,2.65.48,4.25-.51,1.54-1.61,3-3.11,4.1-1.53,1.13-3.29,1.75-4.95,1.75Z"/><path d="M147.62,363.47c1.41,0,2.65.5,3.4,1.51,1.53,2.07.4,5.5-2.52,7.65-1.49,1.1-3.17,1.65-4.65,1.65s-2.65-.5-3.4-1.51c-1.53-2.07-.4-5.5,2.52-7.65,1.49-1.1,3.17-1.65,4.65-1.65M147.62,362.47c-1.76,0-3.63.66-5.24,1.85-3.36,2.47-4.58,6.53-2.73,9.04.91,1.24,2.41,1.92,4.2,1.92s3.63-.66,5.24-1.85c1.58-1.16,2.74-2.7,3.28-4.34.58-1.76.38-3.43-.55-4.7-.91-1.24-2.41-1.92-4.2-1.92h0Z"/><path d="M228.51,393.65c-9.69,0-17.58-7.89-17.58-17.58s7.89-17.58,17.58-17.58,17.58,7.89,17.58,17.58-7.89,17.58-17.58,17.58Z"/><path class="cls-2" d="M228.51,358.99c9.43,0,17.08,7.65,17.08,17.08s-7.65,17.08-17.08,17.08-17.08-7.65-17.08-17.08,7.65-17.08,17.08-17.08M228.51,357.99c-9.97,0-18.08,8.11-18.08,18.08s8.11,18.08,18.08,18.08,18.08-8.11,18.08-18.08-8.11-18.08-18.08-18.08h0Z"/><path class="cls-8" d="M219.2,374.78c-1.64,0-2.99-.61-3.8-1.72-.84-1.14-1.01-2.64-.48-4.25.51-1.54,1.61-3,3.11-4.1,1.53-1.13,3.29-1.75,4.95-1.75s2.98.61,3.8,1.72c.84,1.14,1.01,2.65.48,4.25-.51,1.54-1.61,3-3.11,4.1-1.53,1.13-3.29,1.75-4.95,1.75Z"/><path d="M222.98,363.47c1.41,0,2.65.5,3.4,1.51,1.53,2.07.4,5.5-2.52,7.65-1.49,1.1-3.17,1.65-4.65,1.65s-2.65-.5-3.4-1.51c-1.53-2.07-.4-5.5,2.52-7.65,1.49-1.1,3.17-1.65,4.65-1.65M222.98,362.47c-1.76,0-3.63.66-5.24,1.85-3.36,2.47-4.58,6.53-2.73,9.04.91,1.24,2.41,1.92,4.2,1.92s3.63-.66,5.24-1.85c1.58-1.16,2.74-2.7,3.28-4.34.58-1.76.38-3.43-.55-4.7-.91-1.24-2.41-1.92-4.2-1.92h0Z"/><path d="M193.07,406.01c-8.89,0-16.12-7.23-16.12-16.12s7.23-16.12,16.12-16.12,16.12,7.23,16.12,16.12-7.23,16.12-16.12,16.12Z"/><path class="cls-2" d="M193.07,374.28c8.62,0,15.62,6.99,15.62,15.62s-6.99,15.62-15.62,15.62-15.62-6.99-15.62-15.62,6.99-15.62,15.62-15.62M193.07,373.28c-9.16,0-16.62,7.45-16.62,16.62s7.45,16.62,16.62,16.62,16.62-7.45,16.62-16.62-7.45-16.62-16.62-16.62h0Z"/><path class="cls-8" d="M184.56,388.76c-1.51,0-2.76-.56-3.51-1.59-.77-1.05-.93-2.44-.44-3.92.47-1.42,1.48-2.76,2.86-3.77,1.41-1.04,3.03-1.61,4.55-1.61s2.76.56,3.51,1.59c.77,1.05.93,2.44.44,3.92-.47,1.42-1.48,2.76-2.85,3.77-1.41,1.04-3.03,1.61-4.55,1.61Z"/><path d="M188.01,378.37c1.29,0,2.43.46,3.11,1.39,1.4,1.9.36,5.03-2.3,6.99-1.37,1.01-2.9,1.51-4.25,1.51s-2.43-.46-3.11-1.39c-1.4-1.9-.36-5.03,2.3-6.99,1.37-1.01,2.9-1.51,4.25-1.51M188.01,377.37c-1.63,0-3.35.61-4.85,1.71-1.46,1.07-2.53,2.5-3.03,4.01-.54,1.64-.36,3.19.52,4.38.85,1.16,2.24,1.79,3.91,1.79s3.35-.61,4.85-1.71c3.11-2.29,4.24-6.05,2.52-8.39-.85-1.16-2.24-1.79-3.91-1.79h0Z"/><path d="M197.91,369.38c-9.69,0-17.58-7.89-17.58-17.58s7.89-17.58,17.58-17.58,17.58,7.89,17.58,17.58-7.89,17.58-17.58,17.58Z"/><path class="cls-2" d="M197.91,334.72c9.43,0,17.08,7.65,17.08,17.08s-7.65,17.08-17.08,17.08-17.08-7.65-17.08-17.08,7.65-17.08,17.08-17.08M197.91,333.72c-9.97,0-18.08,8.11-18.08,18.08s8.11,18.08,18.08,18.08,18.08-8.11,18.08-18.08-8.11-18.08-18.08-18.08h0Z"/><path class="cls-8" d="M188.6,350.51c-1.64,0-2.99-.61-3.8-1.72-.84-1.14-1.01-2.64-.48-4.25.51-1.54,1.61-3,3.11-4.1,1.53-1.13,3.29-1.75,4.95-1.75s2.98.61,3.8,1.72c.84,1.14,1.01,2.65.48,4.25-.51,1.54-1.61,3-3.11,4.1-1.53,1.13-3.29,1.75-4.95,1.75Z"/><path d="M192.38,339.19c1.41,0,2.65.5,3.4,1.51,1.53,2.07.4,5.5-2.52,7.65-1.49,1.1-3.17,1.65-4.65,1.65s-2.65-.5-3.4-1.51c-1.53-2.07-.4-5.5,2.52-7.65,1.49-1.1,3.17-1.65,4.65-1.65M192.38,338.19c-1.76,0-3.63.66-5.24,1.85-3.36,2.47-4.58,6.53-2.73,9.04.91,1.24,2.41,1.92,4.2,1.92s3.63-.66,5.24-1.85c1.58-1.16,2.74-2.7,3.28-4.34.58-1.76.38-3.43-.55-4.7-.91-1.24-2.41-1.92-4.2-1.92h0Z"/></g><g id="rop_Liquid"><path class="cls-6" d="M270.15,182.22c.91,11.27-26.65,24.66-90.63,29.8s-95.55-5.36-96.46-16.63c-.91-11.27,58.39-30.26,91.12-30.58,54.59-.53,95.06,6.14,95.97,17.4Z"/></g><g id="to"><path class="cls-7" d="M282.84,106.27c.91,11.27-44.62,20-108.6,25.14s-118.62,3.8-119.53-7.47c-.91-11.27,80.94-22.63,113.67-22.95,54.59-.53,113.56-5.99,114.46,5.27Z"/></g><g id="Layer_8"><path class="cls-3" d="M181.11,57.11l9.49,135.24c.15,2.2-5.98,4.42-13.69,4.96-7.72.54-14.1-.8-14.26-3l-9.49-135.24,27.95-1.96Z"/><ellipse class="cls-4" cx="167.14" cy="58.09" rx="14.01" ry="4" transform="translate(-3.66 11.85) rotate(-4.02)"/></g><g id="Layer_9"><path class="cls-7" d="M141.72,117.83c-14.57,19.03-1.12,14.81,35.15,13,63.98-5.14,26.87-5.88,25.97-17.14-6.68,2.81-16.99,6.23-29.98,7.14-13.23.93-24.08-1.1-31.14-3"/></g></svg>